<svg width="24" height="24" fill="none" xmlns="http://www.w3.org/2000/svg">
    <path d="m21.819 11.33-7.077-7.147a.617.617 0 0 0-.877 0L12.513 5.55a.617.617 0 0 1-.876 0l-1.352-1.367a.617.617 0 0 0-.877 0L2.181 11.48a.63.63 0 0 0 0 .885l7.087 7.147a.618.618 0 0 0 .877 0l1.054-1.065a.614.614 0 0 1 .877 0l1.343 1.37a.617.617 0 0 0 .877 0l7.523-7.597a.63.63 0 0 0 0-.885v-.005zM9.268 16.947 4.73 12.365a.63.63 0 0 1 0-.885l4.678-4.732a.617.617 0 0 1 .877 0l.082.082a.626.626 0 0 1 0 .884L9.136 8.956l-2.939 2.967 2.333 2.354.738.734a.615.615 0 0 0 .675.136.614.614 0 0 0 .2-.136l1.864-1.883 1.858-1.882a.619.619 0 0 1 .674-.136.618.618 0 0 1 .201.136l.082.082a.63.63 0 0 1 0 .886l-4.463 4.506-.224.226a.617.617 0 0 1-.675.135.617.617 0 0 1-.2-.135l.008.001zm8.104-4.73a.63.63 0 0 0 0-.885l-3.07-3.09-4.165 4.205a.617.617 0 0 1-.877 0l-.082-.082a.625.625 0 0 1-.134-.68.625.625 0 0 1 .134-.203l4.171-4.208.521-.525a.619.619 0 0 1 .674-.135.617.617 0 0 1 .201.135l4.538 4.583a.626.626 0 0 1 0 .883l-4.987 5.032a.617.617 0 0 1-.877 0l-.081-.082a.626.626 0 0 1 0-.884l4.034-4.064z" fill="#919CA5"/>
</svg>
