<svg width="24" height="24" fill="none" xmlns="http://www.w3.org/2000/svg">
    <path d="M12 4c-4.416 0-8 3.584-8 8s3.584 8 8 8 8-3.584 8-8-3.584-8-8-8zm2.888 5.072a1.54 1.54 0 0 1 1.544 1.544 1.54 1.54 0 0 1-1.544 1.544 1.54 1.54 0 0 1-1.544-1.544 1.535 1.535 0 0 1 1.544-1.544zm-4.8-1.264c1.04 0 1.888.848 1.888 1.888s-.848 1.888-1.888 1.888A1.891 1.891 0 0 1 8.2 9.696c0-1.048.84-1.888 1.888-1.888zm0 7.304v3a6.405 6.405 0 0 1-4.112-3.968c.84-.896 2.936-1.352 4.112-1.352.424 0 .96.064 1.52.176-1.312.696-1.52 1.616-1.52 2.144zM12 18.4a5.48 5.48 0 0 1-.632-.032v-3.256c0-1.136 2.352-1.704 3.52-1.704.856 0 2.336.312 3.072.92-.936 2.376-3.248 4.072-5.96 4.072z" fill="#919CA5"/>
</svg>
