<svg width="133" height="33" fill="none" xmlns="http://www.w3.org/2000/svg">
    <g clip-path="url(#a)" fill="#F6F6F6">
        <path d="M45.114 28.125c-1.724-1.723-2.642-4.135-2.752-7.237l-.044-1.706.044-1.705c.11-3.102 1.027-5.514 2.752-7.237 1.724-1.723 4.107-2.585 7.148-2.585 2.049 0 3.784.37 5.207 1.11 1.422.738 2.484 1.655 3.186 2.75a6.61 6.61 0 0 1 1.13 3.24.747.747 0 0 1-.258.682c-.202.173-.46.265-.724.259h-2.049a1.017 1.017 0 0 1-.641-.17 1.757 1.757 0 0 1-.427-.683c-.485-1.365-1.167-2.338-2.048-2.92-.882-.583-1.991-.874-3.33-.874-1.763 0-3.164.547-4.202 1.641-1.038 1.094-1.6 2.765-1.686 5.012l-.042 1.535.042 1.45c.086 2.274.641 3.952 1.665 5.032 1.025 1.08 2.432 1.62 4.224 1.62 1.336 0 2.446-.292 3.329-.876.882-.584 1.565-1.557 2.048-2.92.092-.262.237-.501.427-.703a.929.929 0 0 1 .641-.192h2.049c.268-.005.527.095.724.277a.801.801 0 0 1 .258.703 6.683 6.683 0 0 1-1.13 3.218 8.096 8.096 0 0 1-3.158 2.75c-1.409.739-3.15 1.109-5.227 1.109-3.052 0-5.437-.86-7.156-2.58zm20.996 1.877a.951.951 0 0 1-.28-.703V.982A.95.95 0 0 1 66.813 0h2.004a.947.947 0 0 1 .983.982v28.317a.944.944 0 0 1-.983.98h-2.004a.945.945 0 0 1-.703-.277zm10.839-2.006c-1.75-1.804-2.71-4.27-2.881-7.397l-.044-1.45.044-1.409c.198-3.07 1.172-5.515 2.922-7.335 1.75-1.82 4.064-2.729 6.942-2.729 3.157 0 5.604 1.002 7.34 3.006 1.736 2.004 2.605 4.712 2.605 8.126v.734a.952.952 0 0 1-.983.982H78.12v.383a7.885 7.885 0 0 0 1.686 4.711 5.012 5.012 0 0 0 4.125 1.936c1.309 0 2.383-.258 3.223-.775a6.326 6.326 0 0 0 1.857-1.642c.155-.238.35-.447.576-.62.224-.087.464-.123.704-.106h2.09a.97.97 0 0 1 .641.215.734.734 0 0 1 .259.597c0 .625-.392 1.378-1.174 2.259a9.698 9.698 0 0 1-3.285 2.282c-1.527.663-3.18.99-4.844.959-2.937-.012-5.28-.921-7.03-2.727zM89.813 17.57v-.127c0-1.96-.532-3.56-1.598-4.8-1.066-1.238-2.493-1.856-4.283-1.853-1.791 0-3.206.618-4.244 1.854-1.038 1.235-1.555 2.835-1.552 4.8v.126h11.677zm10.413 12.282a7.183 7.183 0 0 1-2.845-2.326 5.495 5.495 0 0 1-1.034-3.262c0-1.877.775-3.42 2.327-4.63 1.552-1.209 3.65-1.997 6.295-2.364l6.358-.897v-1.225c0-2.9-1.664-4.35-4.992-4.35-1.252 0-2.276.259-3.073.775a5.432 5.432 0 0 0-1.792 1.856 1.25 1.25 0 0 1-.321.553.775.775 0 0 1-.532.17H98.78a.95.95 0 0 1-.939-.937c.03-.69.35-1.465.963-2.326.612-.862 1.56-1.616 2.845-2.262 1.281-.637 2.859-.957 4.735-.959 3.186 0 5.477.746 6.872 2.238 1.395 1.493 2.092 3.348 2.09 5.568V29.29a.966.966 0 0 1-.277.703.948.948 0 0 1-.703.276h-1.984a.956.956 0 0 1-.916-.599.95.95 0 0 1-.067-.38v-1.835a7.38 7.38 0 0 1-2.731 2.303c-1.195.625-2.717.938-4.565.938a8.927 8.927 0 0 1-3.877-.845zm9.326-4.159c1.18-1.206 1.769-2.947 1.769-5.223v-1.187l-4.95.727c-2.021.284-3.542.76-4.565 1.426-1.022.667-1.534 1.513-1.536 2.538a2.953 2.953 0 0 0 1.407 2.624 5.952 5.952 0 0 0 3.329.917c1.85-.005 3.365-.612 4.546-1.822zm11.137 4.309a.95.95 0 0 1-.277-.703V9.139a1.022 1.022 0 0 1 .596-.95.92.92 0 0 1 .385-.074h1.963a1.034 1.034 0 0 1 1.034 1.034v1.864c1.166-1.934 3.157-2.9 5.975-2.9h1.665a.954.954 0 0 1 .705.277.939.939 0 0 1 .276.705v1.737a.89.89 0 0 1-.277.682 1.006 1.006 0 0 1-.704.259h-2.578c-1.533 0-2.74.447-3.621 1.344-.881.895-1.322 2.111-1.322 3.646v12.538a.92.92 0 0 1-.3.703 1.034 1.034 0 0 1-.724.277h-2.092a.943.943 0 0 1-.704-.28zm-75.575-1.877c-1.724-1.723-2.642-4.135-2.752-7.237l-.044-1.706.044-1.705c.11-3.102 1.027-5.514 2.752-7.237 1.724-1.723 4.107-2.585 7.148-2.585 2.049 0 3.784.37 5.207 1.11 1.422.738 2.484 1.655 3.186 2.75a6.61 6.61 0 0 1 1.13 3.24.747.747 0 0 1-.258.682c-.202.173-.46.265-.724.259h-2.049a1.017 1.017 0 0 1-.641-.17 1.757 1.757 0 0 1-.427-.683c-.485-1.365-1.167-2.338-2.048-2.92-.882-.583-1.991-.874-3.33-.874-1.763 0-3.164.547-4.202 1.641-1.038 1.094-1.6 2.765-1.686 5.012l-.042 1.535.042 1.45c.086 2.274.641 3.952 1.665 5.032 1.025 1.08 2.432 1.62 4.224 1.62 1.336 0 2.446-.292 3.329-.876.882-.584 1.565-1.557 2.048-2.92.092-.262.237-.501.427-.703a.929.929 0 0 1 .641-.192h2.049c.268-.005.527.095.724.277a.801.801 0 0 1 .258.703 6.683 6.683 0 0 1-1.13 3.218 8.096 8.096 0 0 1-3.158 2.75c-1.409.739-3.15 1.109-5.227 1.109-3.052 0-5.437-.86-7.156-2.58zm20.996 1.877a.951.951 0 0 1-.28-.703V.982A.95.95 0 0 1 66.813 0h2.004a.947.947 0 0 1 .983.982v28.317a.944.944 0 0 1-.983.98h-2.004a.945.945 0 0 1-.703-.277zm10.839-2.006c-1.75-1.804-2.71-4.27-2.881-7.397l-.044-1.45.044-1.409c.198-3.07 1.172-5.515 2.922-7.335 1.75-1.82 4.064-2.729 6.942-2.729 3.157 0 5.604 1.002 7.34 3.006 1.736 2.004 2.605 4.712 2.605 8.126v.734a.952.952 0 0 1-.983.982H78.12v.383a7.885 7.885 0 0 0 1.686 4.711 5.012 5.012 0 0 0 4.125 1.936c1.309 0 2.383-.258 3.223-.775a6.326 6.326 0 0 0 1.857-1.642c.155-.238.35-.447.576-.62.224-.087.464-.123.704-.106h2.09a.97.97 0 0 1 .641.215.734.734 0 0 1 .259.597c0 .625-.392 1.378-1.174 2.259a9.698 9.698 0 0 1-3.285 2.282c-1.527.663-3.18.99-4.844.959-2.937-.012-5.28-.921-7.03-2.727zM89.813 17.57v-.127c0-1.96-.532-3.56-1.598-4.8-1.066-1.238-2.493-1.856-4.283-1.853-1.791 0-3.206.618-4.244 1.854-1.038 1.235-1.555 2.835-1.552 4.8v.126h11.677zm10.413 12.282a7.183 7.183 0 0 1-2.845-2.326 5.495 5.495 0 0 1-1.034-3.262c0-1.877.775-3.42 2.327-4.63 1.552-1.209 3.65-1.997 6.295-2.364l6.358-.897v-1.225c0-2.9-1.664-4.35-4.992-4.35-1.252 0-2.276.259-3.073.775a5.432 5.432 0 0 0-1.792 1.856 1.25 1.25 0 0 1-.321.553.775.775 0 0 1-.532.17H98.78a.95.95 0 0 1-.939-.937c.03-.69.35-1.465.963-2.326.612-.862 1.56-1.616 2.845-2.262 1.281-.637 2.859-.957 4.735-.959 3.186 0 5.477.746 6.872 2.238 1.395 1.493 2.092 3.348 2.09 5.568V29.29a.966.966 0 0 1-.277.703.948.948 0 0 1-.703.276h-1.984a.956.956 0 0 1-.916-.599.95.95 0 0 1-.067-.38v-1.835a7.38 7.38 0 0 1-2.731 2.303c-1.195.625-2.717.938-4.565.938a8.927 8.927 0 0 1-3.877-.845zm9.326-4.159c1.18-1.206 1.769-2.947 1.769-5.223v-1.187l-4.95.727c-2.021.284-3.542.76-4.565 1.426-1.022.667-1.534 1.513-1.536 2.538a2.953 2.953 0 0 0 1.407 2.624 5.952 5.952 0 0 0 3.329.917c1.85-.005 3.365-.612 4.546-1.822zm11.137 4.309a.95.95 0 0 1-.277-.703V9.139a1.022 1.022 0 0 1 .596-.95.92.92 0 0 1 .385-.074h1.963a1.034 1.034 0 0 1 1.034 1.034v1.864c1.166-1.934 3.157-2.9 5.975-2.9h1.665a.954.954 0 0 1 .705.277.939.939 0 0 1 .276.705v1.737a.89.89 0 0 1-.277.682 1.006 1.006 0 0 1-.704.259h-2.578c-1.533 0-2.74.447-3.621 1.344-.881.895-1.322 2.111-1.322 3.646v12.538a.92.92 0 0 1-.3.703 1.034 1.034 0 0 1-.724.277h-2.092a.943.943 0 0 1-.704-.28zM31.398 19.415 20.186 8.208a.983.983 0 0 0-1.389 0l-2.141 2.143a.983.983 0 0 1-1.389 0l-2.141-2.143a.983.983 0 0 0-1.39 0L.288 19.65a.982.982 0 0 0 0 1.388l11.227 11.207a.983.983 0 0 0 1.39 0l1.67-1.67a.976.976 0 0 1 1.389 0l2.129 2.148a.983.983 0 0 0 1.388 0L31.398 20.81a.982.982 0 0 0 0-1.388v-.008zm-19.884 8.808-7.19-7.185a.982.982 0 0 1 0-1.388l7.413-7.42a.983.983 0 0 1 1.389 0l.129.129a.98.98 0 0 1 0 1.385l-1.95 1.949-4.655 4.652 3.695 3.691 1.17 1.15a.975.975 0 0 0 1.386 0l2.953-2.951 2.944-2.952a.981.981 0 0 1 1.386 0l.13.13a.982.982 0 0 1 0 1.387l-7.072 7.066-.354.355a.976.976 0 0 1-1.386 0l.012.002zm12.839-7.418a.982.982 0 0 0 0-1.388l-4.862-4.846-6.6 6.596a.981.981 0 0 1-1.39 0l-.129-.13a.976.976 0 0 1 0-1.384l6.608-6.599.825-.822a.98.98 0 0 1 1.387 0l7.19 7.185a.98.98 0 0 1 0 1.386l-7.902 7.89a.983.983 0 0 1-1.389 0l-.129-.129a.977.977 0 0 1 0-1.385l6.391-6.374z"/>
    </g>
    <defs>
        <clipPath id="a">
            <path fill="#fff" d="M0 0h133v33H0z"/>
        </clipPath>
    </defs>
</svg>
