<svg width="24" height="24" fill="none" xmlns="http://www.w3.org/2000/svg">
    <path d="M16.39 10.5h-3.859v1.421a1.837 1.837 0 0 1-1.828 1.829 1.82 1.82 0 0 1-1.828-1.829V8.85l-1.65.99c-.508.28-.787.813-.787 1.397v1.193l-2.032 1.168a.807.807 0 0 0-.304 1.117l2.03 3.504a.802.802 0 0 0 1.118.305L9.865 17h3.479a1.62 1.62 0 0 0 1.625-1.626h.406a.818.818 0 0 0 .813-.812v-1.625h.203c.33 0 .61-.254.61-.61V11.11c0-.33-.28-.61-.61-.61zm3.733-.94-2.031-3.53A.792.792 0 0 0 17 5.752L14.36 7.25h-2.59c-.305 0-.61.101-.864.253l-.838.534a.776.776 0 0 0-.38.685v3.2a.987.987 0 0 0 1.015 1.015c.559 0 1.016-.432 1.016-1.016V9.687h4.672c.761 0 1.422.66 1.422 1.422v.736l2.03-1.168a.822.822 0 0 0 .28-1.117z" fill="#919CA5"/>
</svg>
