<svg width="24" height="24" fill="none" xmlns="http://www.w3.org/2000/svg">
    <path d="m19.219 13.875-1.344-.75a5.308 5.308 0 0 0 0-2.219l1.344-.75a.36.36 0 0 0 .156-.437 7.989 7.989 0 0 0-1.688-2.969.379.379 0 0 0-.468-.062l-1.344.75A6.282 6.282 0 0 0 14 6.344V4.813a.364.364 0 0 0-.313-.344 7.378 7.378 0 0 0-3.406 0c-.187.031-.281.187-.281.344v1.53A5.597 5.597 0 0 0 8.094 7.47L6.75 6.688a.379.379 0 0 0-.469.062A7.99 7.99 0 0 0 4.594 9.72a.36.36 0 0 0 .156.437l1.344.75a6.611 6.611 0 0 0 0 2.22l-1.344.75a.36.36 0 0 0-.156.437A7.989 7.989 0 0 0 6.28 17.28a.379.379 0 0 0 .469.063l1.344-.75A6.068 6.068 0 0 0 10 17.688v1.53c0 .157.125.313.281.376 1.156.25 2.313.219 3.406 0 .188-.063.313-.219.313-.375v-1.531a6.28 6.28 0 0 0 1.875-1.094l1.344.75a.379.379 0 0 0 .468-.063c.782-.843 1.344-1.843 1.72-2.968a.42.42 0 0 0-.188-.438zM12 14.5A2.468 2.468 0 0 1 9.5 12c0-1.375 1.094-2.5 2.5-2.5 1.375 0 2.5 1.125 2.5 2.5 0 1.406-1.125 2.5-2.5 2.5z" fill="#919CA5"/>
</svg>
