<svg width="24" height="24" fill="none" xmlns="http://www.w3.org/2000/svg">
    <path fill-rule="evenodd" clip-rule="evenodd" d="M11.898 5.6a6.396 6.396 0 0 1 6.438 5.495 6.402 6.402 0 0 1-4.643 7.078 6.395 6.395 0 0 1-4.503-.425.8.8 0 0 0-.492-.07l-2.571.46.726-1.673a.8.8 0 0 0-.08-.78 6.402 6.402 0 0 1 5.125-10.084zm5.295.313a7.995 7.995 0 0 0-13.14 5.217 8.003 8.003 0 0 0 1.16 5.096l-1.147 2.642a.8.8 0 0 0 .874 1.106l3.789-.675a7.994 7.994 0 0 0 9.96-2.91 8.002 8.002 0 0 0-1.496-10.476zM9.907 8.414A1.217 1.217 0 0 0 8.69 9.631v.812a4.868 4.868 0 0 0 4.868 4.868h.811a1.217 1.217 0 0 0 0-2.434h-.811a1.217 1.217 0 0 0-1.067.63 3.246 3.246 0 0 1-1.998-1.998 1.217 1.217 0 0 0 .63-1.066V9.63a1.217 1.217 0 0 0-1.216-1.217z" fill="#919CA5"/>
</svg>
